<?xml version="1.0" encoding="UTF-8" standalone="no"?>
<svg 
  version="1.1" 
  xmlns="http://www.w3.org/2000/svg" 
  xmlns:xlink="http://www.w3.org/1999/xlink" 
  xmlns:svg="http://www.w3.org/2000/svg"
  xmlns:rdf="http://www.w3.org/1999/02/22-rdf-syntax-ns#"
  xmlns:cc="http://creativecommons.org/ns#"
  xmlns:dc="http://purl.org/dc/elements/1.1/"
  viewBox="0 0 768 768"
  width="768"
  height="768"
>
<style>svg { }</style>"
<metadata id="metadata1">
Created by https://svgstud.io and licensed under CC-BY-SA 4.0 license. Please attribute https://svgstud.io
</metadata>
<metadata id="prompt">
simple line tiger lily flower svg
</metadata>
<metadata id="version">
7
</metadata>
<metadata id="metadata2">
<rdf:RDF>
<cc:Work
    rdf:about="">
    <cc:license
    rdf:resource="http://creativecommons.org/licenses/by-sa/4.0/" />
    <dc:creator>
        <cc:Agent>
            <dc:title>https://svgstud.io</dc:title>
        </cc:Agent>
    </dc:creator>
</cc:Work>
<cc:License
    rdf:about="http://creativecommons.org/licenses/by-sa/4.0/">
    <cc:permits
    rdf:resource="http://creativecommons.org/ns#Reproduction" />
    <cc:permits
    rdf:resource="http://creativecommons.org/ns#Distribution" />
    <cc:requires
    rdf:resource="http://creativecommons.org/ns#Notice" />
    <cc:requires
    rdf:resource="http://creativecommons.org/ns#Attribution" />
    <cc:permits
    rdf:resource="http://creativecommons.org/ns#DerivativeWorks" />
    <cc:requires
    rdf:resource="http://creativecommons.org/ns#ShareAlike" />
</cc:License>
</rdf:RDF>
</metadata>
<metadata id="uid">
3d6c2422219e8bd7be82945a6c5ba6017ea18f135e3b7058d2f78eb0623fb9a6
</metadata>
<path stroke="none" fill="black" fill-rule="evenodd" d="M335.75,737.88C332.31,737.82 328.15,737.48 326.50,737.12C324.40,736.67 322.98,735.44 321.76,732.99C320.80,731.07 317.57,723.64 314.59,716.49C311.60,709.33 305.69,696.06 301.46,686.99C297.22,677.92 289.99,662.01 285.37,651.63C280.76,641.25 274.69,628.65 271.88,623.63C269.07,618.61 261.68,606.85 255.46,597.50C249.24,588.15 242.10,577.93 239.59,574.78C237.07,571.63 233.64,568.35 231.95,567.47C229.47,566.19 228.23,566.10 225.51,567.00C223.66,567.61 217.16,571.23 211.08,575.04C204.99,578.85 196.34,583.82 191.86,586.07C187.38,588.32 179.27,591.90 173.84,594.01C168.41,596.13 160.04,599.01 155.24,600.41C150.43,601.81 142.50,603.64 137.62,604.48C132.30,605.39 122.60,606.00 113.45,606.00C105.04,606.00 97.45,605.73 96.58,605.39C95.71,605.06 95.00,604.09 95.00,603.24C95.00,602.39 100.06,596.55 106.25,590.26C112.44,583.97 121.33,575.77 126.00,572.04C130.68,568.31 137.65,563.23 141.50,560.76C145.35,558.28 151.20,554.91 154.50,553.27C157.80,551.62 163.43,549.32 167.00,548.15C170.57,546.97 179.70,544.66 187.28,543.01C196.54,540.99 203.84,540.00 209.53,540.00C214.19,540.00 218.00,539.80 218.00,539.56C218.00,539.32 216.67,535.68 215.05,531.48C213.43,527.27 210.32,521.45 208.13,518.55C205.94,515.65 201.75,511.28 198.82,508.83C195.90,506.38 191.25,502.77 188.50,500.81C185.75,498.85 181.03,495.87 178.00,494.17C174.97,492.48 168.10,489.50 162.71,487.55C157.33,485.60 150.58,483.73 147.71,483.40C143.30,482.88 141.75,483.19 137.60,485.39C134.16,487.22 131.18,488.00 127.58,488.00C123.76,488.00 121.53,487.36 118.74,485.47C116.70,484.08 114.34,481.63 113.51,480.02C112.68,478.41 112.00,475.49 112.00,473.52C112.00,471.55 112.69,468.28 113.54,466.25C114.38,464.23 115.79,461.78 116.67,460.82C118.12,459.21 118.11,458.48 116.50,452.28C115.51,448.44 114.53,439.95 114.24,432.68C113.73,419.85 113.73,419.85 102.08,408.18C94.88,400.96 88.02,392.89 84.13,387.06C80.66,381.87 75.39,372.57 72.42,366.39C69.45,360.21 65.03,350.28 62.59,344.33C60.16,338.37 55.39,323.82 52.00,312.00C48.61,300.18 44.28,286.34 42.38,281.26C40.48,276.17 37.59,269.20 35.96,265.76C34.33,262.32 33.00,258.49 33.00,257.25C33.00,255.54 33.58,255.00 35.39,255.00C36.70,255.00 43.57,257.31 50.64,260.12C57.71,262.94 74.23,268.78 87.35,273.11C101.80,277.87 114.66,282.79 119.97,285.59C124.79,288.13 132.56,293.04 137.23,296.50C143.58,301.19 149.97,307.63 162.43,321.89C173.33,334.37 179.80,341.00 181.07,341.00C182.13,341.00 183.00,340.70 183.00,340.33C183.00,339.97 178.16,334.68 172.25,328.58C163.54,319.60 160.62,315.79 156.85,308.50C154.30,303.55 151.04,296.24 149.63,292.26C148.21,288.27 146.19,283.32 145.13,281.26C144.07,279.18 138.74,273.60 133.21,268.78C126.56,262.98 122.50,258.60 121.10,255.71C119.95,253.32 119.00,250.27 119.00,248.93C119.01,247.60 119.90,245.04 120.99,243.25C122.62,240.57 123.59,240.00 126.49,240.00C128.42,240.00 131.69,240.90 133.74,242.00C135.79,243.10 139.25,244.00 141.42,244.00C143.59,244.00 147.23,243.10 149.50,242.00C151.77,240.90 156.95,237.01 161.01,233.36C165.07,229.70 170.83,225.59 173.82,224.23C178.11,222.26 180.86,221.74 186.88,221.75C192.36,221.76 198.30,222.76 208.00,225.31C215.43,227.26 224.85,229.39 228.93,230.05C233.02,230.70 240.38,231.30 245.28,231.37C254.20,231.50 254.20,231.50 257.03,222.87C258.58,218.13 261.47,210.84 263.45,206.68C265.42,202.51 269.30,195.73 272.06,191.60C274.82,187.47 279.74,181.69 283.00,178.74C286.25,175.80 291.52,171.91 294.70,170.11C297.89,168.30 304.10,164.79 308.50,162.31C312.90,159.83 319.29,156.24 322.71,154.33C326.72,152.09 330.80,150.67 334.27,150.31C338.10,149.92 340.51,150.21 342.69,151.34C344.38,152.21 348.24,155.19 351.27,157.96C354.30,160.73 357.05,163.00 357.39,163.00C357.73,163.00 358.00,162.38 358.00,161.62C358.00,160.86 357.30,159.66 356.44,158.95C355.58,158.24 352.87,155.01 350.41,151.78C347.96,148.55 345.31,144.24 344.52,142.20C343.74,140.17 342.59,136.52 341.97,134.11C341.35,131.69 340.49,125.17 340.04,119.61C339.60,114.05 339.65,105.00 340.15,99.50C340.64,94.00 341.95,86.19 343.05,82.14C344.15,78.09 346.42,72.01 348.10,68.64C349.77,65.26 352.08,61.49 353.24,60.25C354.40,59.01 356.42,58.00 357.73,58.00C359.29,58.00 361.82,59.78 365.08,63.18C367.81,66.03 371.65,70.78 373.61,73.74C375.58,76.69 378.70,82.40 380.56,86.42C382.42,90.44 385.15,98.18 386.62,103.62C388.89,111.98 389.32,115.58 389.36,127.00C389.40,138.74 389.12,141.24 387.15,146.20C385.91,149.34 382.81,154.22 380.27,157.05C375.64,162.19 375.64,162.19 378.88,178.37C380.67,187.27 384.13,201.74 386.58,210.52C389.03,219.31 391.75,229.88 392.62,234.00C393.49,238.12 394.56,241.89 395.01,242.36C395.46,242.83 398.28,239.91 401.29,235.86C404.30,231.81 409.49,225.42 412.83,221.66C416.17,217.89 421.43,212.60 424.53,209.89C427.62,207.19 430.56,205.23 431.07,205.55C431.58,205.86 432.00,206.83 432.00,207.71C432.00,208.58 430.37,214.74 428.39,221.40C426.40,228.05 423.86,235.30 422.75,237.50C421.63,239.70 419.03,243.97 416.97,247.00C414.91,250.03 410.05,256.09 406.17,260.48C402.29,264.87 398.92,269.21 398.68,270.12C398.44,271.03 398.56,272.28 398.93,272.89C399.42,273.68 401.72,273.30 406.63,271.63C410.49,270.31 416.98,268.66 421.07,267.94C425.16,267.23 435.12,266.69 443.22,266.74C457.94,266.84 457.94,266.84 458.46,263.67C458.74,261.93 460.09,252.85 461.46,243.50C462.82,234.15 465.57,214.92 467.55,200.77C471.17,175.04 471.17,175.04 468.36,169.31C465.84,164.16 465.52,162.31 465.17,151.01C464.88,141.77 465.23,136.20 466.50,129.97C467.44,125.31 469.49,118.01 471.04,113.74C472.60,109.47 475.55,103.21 477.60,99.83C479.65,96.46 482.65,92.19 484.27,90.35C486.35,87.98 488.06,87.00 490.15,87.00C491.96,87.00 494.06,87.97 495.61,89.52C497.00,90.90 498.96,93.94 499.99,96.27C501.01,98.60 502.55,103.97 503.42,108.21C504.29,112.45 505.00,119.73 505.00,124.39C505.00,129.05 504.35,135.94 503.55,139.68C502.75,143.43 501.24,148.99 500.18,152.02C499.13,155.06 497.12,159.81 495.71,162.58C494.31,165.35 491.59,169.50 489.66,171.80C487.54,174.35 485.77,177.85 485.15,180.74C484.59,183.36 482.55,196.75 480.62,210.50C478.69,224.25 476.13,242.89 474.94,251.93C472.86,267.73 472.84,268.41 474.58,269.68C475.57,270.41 477.83,271.00 479.61,271.00C481.99,271.00 484.23,269.81 488.12,266.49C491.03,264.01 495.66,260.86 498.40,259.49C501.15,258.12 504.43,257.00 505.70,257.00C507.07,257.00 508.00,257.60 508.00,258.49C508.00,259.31 506.38,264.04 504.39,269.00C502.41,273.95 501.04,278.66 501.34,279.45C501.65,280.24 503.83,281.38 506.20,281.98C508.56,282.57 513.42,283.98 517.00,285.10C520.58,286.22 530.25,290.50 538.50,294.60C549.06,299.85 555.43,302.39 560.00,303.17C563.58,303.78 567.57,305.12 568.88,306.14C570.20,307.16 571.81,308.00 572.48,308.00C573.19,308.00 575.18,302.19 577.35,293.75C579.37,285.91 581.29,278.07 581.62,276.33C582.08,273.89 581.64,272.38 579.73,269.83C578.36,268.00 576.57,265.15 575.76,263.50C574.94,261.85 573.54,257.18 572.64,253.13C571.74,249.07 571.01,242.55 571.01,238.63C571.02,234.71 571.71,228.61 572.54,225.07C573.38,221.54 576.27,214.11 578.98,208.57C581.68,203.03 586.18,195.50 588.96,191.84C591.74,188.18 597.73,181.12 602.26,176.16C606.79,171.20 614.87,163.07 620.22,158.10C625.56,153.12 631.14,148.75 632.62,148.38C634.10,148.01 636.03,148.13 636.90,148.65C637.78,149.17 639.95,152.50 641.72,156.05C643.49,159.60 646.12,166.55 647.56,171.50C649.56,178.36 650.31,183.64 650.73,193.73C651.08,202.18 650.83,209.75 650.03,214.71C649.34,218.97 647.44,226.30 645.81,230.98C644.18,235.67 640.99,242.65 638.74,246.50C636.48,250.35 632.13,256.13 629.07,259.35C626.01,262.57 620.58,266.91 617.00,269.00C613.42,271.08 608.19,273.53 605.37,274.44C602.54,275.34 599.57,276.85 598.75,277.79C597.93,278.73 596.10,282.44 594.69,286.03C593.27,289.61 589.37,301.99 586.02,313.53C582.67,325.06 578.36,337.83 576.44,341.90C574.52,345.97 570.41,352.95 567.30,357.40C564.19,361.86 558.35,369.77 554.31,375.00C550.28,380.23 544.99,386.93 542.57,389.90C540.14,392.87 537.93,396.16 537.65,397.21C537.36,398.32 537.75,399.35 538.58,399.67C539.36,399.97 541.02,399.96 542.25,399.64C543.49,399.32 546.98,396.99 550.00,394.46C553.02,391.93 558.42,388.37 562.00,386.55C565.58,384.73 573.40,381.60 579.39,379.60C585.38,377.60 594.10,375.29 598.77,374.48C603.44,373.67 611.14,373.00 615.88,373.01C620.62,373.01 628.55,373.47 633.50,374.02C638.45,374.57 645.65,375.71 649.50,376.56C653.35,377.41 667.08,381.26 680.00,385.10C692.92,388.95 707.38,392.97 712.11,394.02C716.85,395.08 726.29,396.67 733.09,397.55C739.89,398.44 745.80,399.38 746.22,399.64C746.65,399.90 747.00,400.94 747.00,401.94C747.00,402.94 743.70,407.53 739.66,412.13C735.62,416.73 728.91,423.72 724.75,427.66C720.59,431.60 713.88,437.14 709.84,439.98C705.80,442.83 698.23,447.57 693.00,450.53C687.77,453.49 677.42,458.57 670.00,461.81C662.58,465.05 654.02,468.48 651.00,469.43C647.98,470.37 644.20,471.65 642.62,472.25C639.74,473.35 639.74,473.35 640.43,483.35C640.81,488.85 641.50,494.08 641.98,494.96C642.46,495.85 646.92,498.99 651.89,501.94C656.87,504.88 664.48,510.13 668.81,513.59C673.14,517.05 679.25,523.02 682.39,526.86C685.53,530.70 690.27,537.45 692.92,541.87C695.58,546.29 699.38,553.98 701.38,558.96C703.37,563.94 705.00,569.19 705.00,570.63C705.00,573.17 704.85,573.24 700.25,572.72C697.64,572.42 690.55,570.97 684.50,569.49C677.02,567.66 669.66,566.64 661.50,566.30C654.90,566.02 648.08,566.18 646.33,566.65C644.13,567.24 642.16,569.01 639.83,572.48C637.30,576.26 634.93,578.27 630.00,580.84C623.54,584.19 623.43,584.21 613.75,583.56C605.91,583.04 604.00,583.17 604.00,584.26C604.00,585.00 605.39,587.80 607.09,590.48C608.79,593.16 612.45,599.43 615.22,604.42C618.00,609.42 622.46,616.96 625.14,621.20C627.82,625.43 630.12,629.93 630.25,631.20C630.49,633.42 630.24,633.50 623.50,633.37C619.65,633.30 608.85,631.81 599.50,630.06C590.15,628.31 575.40,625.31 566.73,623.39C558.06,621.48 546.64,618.58 541.36,616.96C536.08,615.33 531.36,614.00 530.88,614.00C530.39,614.00 530.02,615.24 530.04,616.75C530.05,618.26 530.71,622.42 531.49,626.00C532.27,629.58 533.44,637.92 534.10,644.55C534.88,652.44 534.97,657.97 534.36,660.55C533.83,662.80 532.83,664.50 532.04,664.50C531.28,664.50 524.40,655.27 516.76,644.00C509.12,632.73 498.96,617.88 494.18,611.00C486.26,599.61 484.60,597.84 475.38,591.00C469.81,586.88 460.38,579.90 454.42,575.50C448.46,571.10 443.24,567.35 442.82,567.18C442.40,567.00 439.17,571.27 435.64,576.68C432.11,582.08 426.90,590.55 424.06,595.50C421.22,600.45 417.01,608.29 414.70,612.92C410.50,621.34 410.50,621.34 409.91,638.92C409.41,653.75 408.97,657.39 407.10,662.20C405.89,665.34 402.86,670.17 400.37,672.93C397.45,676.18 394.49,678.37 392.02,679.11C388.90,680.05 387.32,679.96 383.41,678.62C380.19,677.53 378.28,677.32 377.60,678.00C376.96,678.64 376.70,689.20 376.87,707.06C377.07,727.70 376.83,735.50 375.95,736.56C375.14,737.53 372.72,738.00 368.46,738.00C365.00,738.00 361.45,737.73 360.58,737.39C359.18,736.86 359.00,732.87 359.00,702.78C359.00,668.77 359.00,668.77 353.75,663.09C350.86,659.97 345.46,653.16 341.75,647.96C338.04,642.76 333.15,637.15 330.89,635.50C328.64,633.85 324.29,629.81 321.23,626.52C318.18,623.23 314.42,617.83 312.88,614.52C311.33,611.21 309.58,605.32 308.99,601.42C308.25,596.64 308.21,592.43 308.87,588.42C309.41,585.17 310.28,581.38 310.81,580.00C311.77,577.50 311.77,577.50 312.83,580.00C313.41,581.38 314.63,586.32 315.52,590.98C316.42,595.65 318.53,603.04 320.21,607.40C322.92,614.42 324.37,616.47 332.95,625.41C338.27,630.96 345.17,639.14 348.28,643.58C351.38,648.02 356.08,653.67 358.71,656.12C361.35,658.58 365.98,662.00 369.00,663.72C372.02,665.45 377.86,667.79 381.96,668.92C386.90,670.29 389.75,670.65 390.41,669.99C391.06,669.34 390.91,666.89 389.95,662.75C389.04,658.81 388.54,651.70 388.61,643.50C388.70,632.53 389.13,629.13 391.36,621.73C392.81,616.91 396.03,608.62 398.51,603.31C401.00,597.99 405.90,589.34 409.41,584.07C412.93,578.81 420.17,569.77 425.52,564.00C430.86,558.23 436.93,550.93 439.00,547.78C441.07,544.63 443.56,539.12 444.53,535.53C446.05,529.90 446.13,528.04 445.12,521.90C444.48,518.00 443.23,513.38 442.36,511.65C441.48,509.92 439.84,507.49 438.71,506.25C437.58,505.01 435.82,504.00 434.79,504.00C433.77,504.00 431.41,504.64 429.55,505.41C426.79,506.57 425.92,507.69 424.83,511.49C424.10,514.05 423.09,516.23 422.58,516.33C422.08,516.42 421.03,514.59 420.25,512.25C419.45,509.84 418.20,508.00 417.37,508.00C416.54,508.00 414.62,510.89 412.89,514.75C411.22,518.46 409.15,522.28 408.28,523.25C407.40,524.21 406.26,525.00 405.73,525.00C405.14,525.00 405.04,522.48 405.46,518.50C406.01,513.37 405.88,512.00 404.81,512.00C404.07,512.00 398.98,516.50 393.50,522.00C388.02,527.50 383.21,532.00 382.81,532.00C382.41,532.00 382.70,530.27 383.45,528.15C384.19,526.04 385.75,522.45 386.90,520.19C388.06,517.93 389.00,515.61 389.00,515.04C389.00,514.47 388.51,514.00 387.90,514.00C387.30,514.00 384.10,516.81 380.79,520.25C377.48,523.69 372.54,529.65 369.80,533.50C367.06,537.35 363.56,542.98 362.03,546.00C360.49,549.02 358.11,555.10 356.73,559.50C355.34,563.90 353.49,571.74 352.61,576.93C351.72,582.11 350.96,589.99 350.90,594.43C350.85,598.87 350.51,604.98 350.15,608.00C349.70,611.83 349.06,613.50 348.06,613.50C347.26,613.50 345.81,612.13 344.83,610.45C343.85,608.77 342.60,604.23 342.05,600.36C341.40,595.75 341.39,590.38 342.02,584.81C342.55,580.12 344.15,572.75 345.56,568.41C346.97,564.08 349.92,556.93 352.10,552.52C354.29,548.11 358.07,542.02 360.52,539.00C362.96,535.98 368.32,529.23 372.43,524.00C376.53,518.77 381.78,512.13 384.09,509.23C386.41,506.34 388.03,503.69 387.70,503.36C387.36,503.03 386.05,503.02 384.77,503.34C383.49,503.66 379.30,505.96 375.47,508.44C371.64,510.93 367.94,512.97 367.25,512.98C366.56,512.99 366.00,512.27 366.00,511.37C366.00,510.47 366.88,508.33 367.95,506.62C369.03,504.90 371.28,502.22 372.95,500.67C374.63,499.11 376.00,497.42 376.00,496.92C376.00,496.41 374.39,496.00 372.42,496.00C370.00,496.00 368.96,495.59 369.23,494.75C369.45,494.06 372.43,492.40 375.85,491.06C380.22,489.35 381.98,488.15 381.76,487.06C381.50,485.75 379.63,485.52 370.05,485.60C358.66,485.69 358.66,485.69 361.58,483.38C363.19,482.11 365.98,479.87 367.80,478.40C370.95,475.84 371.44,475.75 379.05,476.38C384.08,476.80 387.00,476.68 387.00,476.05C387.00,475.51 384.41,473.18 381.25,470.87C378.09,468.57 375.34,466.56 375.15,466.41C374.96,466.26 375.05,465.73 375.36,465.23C375.68,464.70 377.98,464.75 380.93,465.36C383.69,465.92 386.23,466.10 386.57,465.76C386.91,465.42 386.43,463.85 385.50,462.27C384.57,460.70 382.33,458.39 380.51,457.15C378.70,455.91 374.80,453.97 371.86,452.85C368.63,451.62 362.93,450.60 357.50,450.28C352.55,449.98 344.79,450.24 340.26,450.85C335.23,451.52 329.98,452.98 326.76,454.60C323.87,456.05 319.67,458.72 317.43,460.54C315.19,462.35 311.00,467.26 308.11,471.44C305.21,475.62 301.36,482.30 299.53,486.27C297.71,490.25 294.84,497.55 293.15,502.50C291.47,507.45 289.39,515.50 288.54,520.38C287.63,525.67 287.00,535.20 287.00,543.95C287.00,552.02 287.47,561.30 288.05,564.57C288.63,567.83 290.87,575.90 293.02,582.50C295.37,589.69 298.18,601.71 300.02,612.50C301.72,622.40 303.81,633.65 304.68,637.50C305.54,641.35 308.26,650.30 310.72,657.39C313.18,664.47 317.21,675.05 319.68,680.89C322.15,686.72 328.18,701.09 333.08,712.80C337.99,724.52 342.00,734.98 342.00,736.05C342.00,737.79 341.32,737.99 335.75,737.88zM379.80,656.11C379.52,657.85 379.22,657.81 375.24,655.42C372.58,653.83 370.16,651.29 368.82,648.69C367.34,645.81 366.64,642.55 366.58,638.30C366.53,634.68 367.00,631.60 367.71,630.89C368.65,629.95 369.25,629.96 370.46,630.96C371.31,631.67 372.00,632.92 372.00,633.75C372.00,634.58 373.82,639.53 376.05,644.75C378.28,649.97 379.97,655.08 379.80,656.11zM519.80,629.59C520.02,628.53 519.19,623.43 517.94,618.25C516.17,610.91 515.15,608.49 513.30,607.28C512.00,606.43 510.64,606.03 510.28,606.39C509.92,606.75 510.66,610.30 511.94,614.27C513.21,618.25 515.41,623.75 516.82,626.50C518.75,630.26 519.49,631.03 519.80,629.59zM337.05,620.00C336.55,620.00 335.24,618.85 334.13,617.44C333.03,616.04 331.39,612.96 330.49,610.61C329.59,608.26 329.00,604.58 329.18,602.42C329.36,600.26 329.95,598.50 330.50,598.50C331.05,598.50 332.67,601.88 334.10,606.00C335.53,610.12 336.98,614.96 337.32,616.75C337.67,618.54 337.54,620.00 337.05,620.00zM286.14,613.42C286.92,612.93 287.10,610.03 286.71,604.11C286.40,599.37 285.17,591.23 283.98,586.00C282.80,580.77 280.99,571.39 279.97,565.14C278.95,558.90 277.87,553.53 277.56,553.23C277.25,552.92 276.68,552.99 276.28,553.39C275.88,553.79 275.61,557.35 275.68,561.31C275.74,565.26 277.41,577.55 279.37,588.62C281.34,599.69 283.41,609.95 283.97,611.43C284.59,613.05 285.45,613.84 286.14,613.42zM597.42,611.95C597.93,611.98 597.26,610.84 595.92,609.41C594.59,607.99 590.58,604.76 587.00,602.24C583.42,599.72 575.05,593.68 568.39,588.83C556.29,580.00 556.29,580.00 548.64,580.00C544.44,580.00 541.00,580.39 541.00,580.87C541.00,581.35 542.91,583.50 545.25,585.64C547.59,587.79 553.10,592.06 557.50,595.13C561.90,598.20 566.54,601.26 567.81,601.93C569.59,602.86 570.46,602.87 571.54,601.96C572.67,601.03 574.16,601.46 578.68,604.01C581.82,605.79 587.12,608.29 590.45,609.57C593.78,610.85 596.92,611.92 597.42,611.95zM115.33,598.00C116.74,598.00 126.14,596.01 136.21,593.58C148.03,590.73 158.42,587.51 165.51,584.48C171.55,581.91 181.22,577.43 187.00,574.53C192.78,571.63 200.95,567.47 205.17,565.28C209.39,563.09 215.52,560.74 218.79,560.04C222.06,559.35 225.35,558.40 226.12,557.93C227.28,557.21 227.26,556.84 226.00,555.58C225.18,554.76 221.80,553.36 218.50,552.47C214.73,551.45 208.59,550.86 202.00,550.87C195.89,550.87 189.19,551.50 185.97,552.37C182.93,553.19 176.13,555.86 170.86,558.31C165.58,560.76 156.93,565.49 151.63,568.81C146.34,572.14 135.97,579.41 128.60,584.96C121.23,590.51 114.65,595.72 113.98,596.53C112.95,597.76 113.17,598.00 115.33,598.00zM268.82,594.69C269.01,593.73 267.83,590.58 266.20,587.70C264.57,584.81 259.53,577.06 255.01,570.48C250.48,563.89 245.97,557.66 244.99,556.63C244.01,555.60 242.71,555.06 242.10,555.44C241.50,555.81 241.00,557.61 241.00,559.44C241.00,562.19 242.49,564.47 249.66,572.63C254.42,578.06 260.60,585.64 263.40,589.47C266.97,594.37 268.58,595.92 268.82,594.69zM518.00,595.88C520.25,595.92 519.92,595.38 514.73,590.48C511.55,587.49 506.32,583.25 503.10,581.07C499.89,578.88 494.93,575.73 492.08,574.05C489.24,572.37 486.26,571.00 485.46,571.00C484.66,571.00 484.00,571.50 484.00,572.11C484.00,572.71 485.31,574.87 486.92,576.90C488.53,578.93 493.23,583.02 497.38,585.98C501.52,588.94 507.29,592.37 510.21,593.60C513.12,594.82 516.62,595.85 518.00,595.88zM617.79,574.90C620.24,574.96 623.70,574.17 625.86,573.07C627.93,572.01 630.22,570.44 630.93,569.58C631.82,568.51 632.02,566.61 631.56,563.55C630.97,559.58 631.17,558.84 633.41,556.89C634.96,555.54 635.65,554.19 635.20,553.39C634.80,552.67 630.55,549.70 625.76,546.79C620.97,543.88 613.66,538.67 609.52,535.22C605.39,531.76 602.00,528.50 602.00,527.97C602.00,527.44 603.01,527.00 604.25,527.01C605.49,527.02 608.87,528.12 611.76,529.47C614.65,530.81 619.01,533.29 621.44,534.96C623.87,536.63 626.57,538.00 627.43,538.00C628.67,538.00 629.00,536.80 629.02,532.25C629.04,526.50 629.04,526.50 633.05,532.75C635.25,536.19 637.47,539.00 637.99,539.00C638.51,539.00 639.40,538.13 639.96,537.07C640.53,536.00 641.00,532.74 641.00,529.82C640.99,526.89 640.09,518.42 639.00,511.00C637.90,503.57 636.08,490.07 634.96,481.00C633.84,471.93 632.05,461.00 631.00,456.71C629.94,452.43 627.63,446.22 625.87,442.91C624.11,439.60 620.27,434.70 617.33,432.02C614.40,429.34 609.64,425.79 606.75,424.14C603.86,422.49 597.90,419.96 593.50,418.51C589.10,417.07 578.45,414.14 569.84,412.01C561.23,409.88 550.73,407.65 546.52,407.07C542.30,406.48 535.32,406.00 530.99,406.00C526.67,406.00 522.02,406.42 520.65,406.94C518.76,407.66 517.78,409.25 516.49,413.69C515.57,416.89 513.30,422.79 511.45,426.80C509.60,430.82 506.42,436.84 504.39,440.18C502.36,443.52 498.52,448.88 495.85,452.09C493.18,455.29 491.00,458.42 491.00,459.04C491.00,459.80 492.27,459.96 494.88,459.52C497.01,459.16 504.32,459.59 511.13,460.47C517.93,461.36 526.95,462.94 531.17,463.99C535.39,465.04 541.49,467.23 544.73,468.86C547.97,470.50 551.17,472.51 551.85,473.32C552.92,474.61 552.64,474.70 549.79,474.03C547.98,473.59 542.97,472.30 538.66,471.15C534.34,469.99 526.92,468.53 522.16,467.89C517.19,467.23 509.22,467.00 503.47,467.35C497.95,467.68 491.65,468.61 489.47,469.41C487.29,470.21 485.79,470.89 486.15,470.93C486.51,470.97 493.04,471.69 500.65,472.53C508.26,473.38 517.41,474.74 520.99,475.56C524.57,476.38 530.20,477.95 533.50,479.05C536.80,480.15 541.98,482.65 545.00,484.60C548.36,486.78 549.53,487.92 548.00,487.54C546.62,487.20 540.77,485.82 535.00,484.48C529.23,483.13 518.80,481.51 511.83,480.87C500.85,479.87 497.64,479.95 487.64,481.46C481.30,482.42 475.30,483.79 474.31,484.52C472.62,485.75 472.67,485.87 475.00,486.38C476.38,486.68 485.82,488.10 496.00,489.53C506.18,490.96 521.25,493.51 529.50,495.18C537.75,496.86 548.33,499.33 553.00,500.67C557.67,502.02 563.34,504.19 565.58,505.50C567.82,506.81 570.25,508.60 570.97,509.47C571.69,510.34 572.02,511.31 571.69,511.64C571.37,511.96 562.44,510.80 551.85,509.05C541.26,507.31 529.88,505.25 526.55,504.48C523.22,503.72 512.17,501.75 502.00,500.12C491.82,498.48 478.96,496.60 473.42,495.93C467.87,495.27 462.71,494.93 461.95,495.18C461.19,495.44 463.02,496.51 466.01,497.57C469.17,498.69 473.24,501.21 475.72,503.58C478.08,505.82 480.00,508.18 480.00,508.83C480.00,509.47 479.52,510.00 478.93,510.00C478.34,510.00 475.86,508.83 473.41,507.40C470.97,505.96 465.72,503.95 461.74,502.91C457.76,501.88 454.16,501.03 453.75,501.02C453.34,501.01 453.00,501.41 453.00,501.91C453.00,502.41 455.93,504.91 459.50,507.46C463.08,510.01 466.67,513.40 467.50,514.99C468.52,516.96 468.65,518.10 467.93,518.55C467.34,518.91 463.58,516.02 459.56,512.13C455.55,508.24 451.05,504.59 449.57,504.03C448.08,503.46 446.47,503.00 445.99,503.00C445.51,503.00 446.02,505.04 447.12,507.54C448.23,510.04 450.25,515.78 451.63,520.29C453.00,524.81 454.44,532.33 454.81,537.00C455.50,545.50 455.50,545.50 465.00,550.22C470.23,552.81 479.00,556.55 484.50,558.53C490.00,560.52 499.00,563.28 504.50,564.68C513.93,567.08 516.58,567.27 551.00,568.00C582.81,568.67 588.72,569.05 597.00,570.91C602.23,572.08 608.08,573.44 610.00,573.92C611.92,574.40 615.43,574.84 617.79,574.90zM183.48,569.00C183.21,569.00 183.00,568.40 183.00,567.67C183.00,566.95 184.02,565.39 185.26,564.22C186.51,563.05 189.19,561.40 191.23,560.55C193.27,559.70 196.53,559.00 198.47,559.00C200.41,559.00 202.00,559.44 202.00,559.98C202.00,560.51 200.99,561.62 199.75,562.43C198.51,563.24 194.45,565.05 190.73,566.45C187.00,567.85 183.74,569.00 183.48,569.00zM688.87,557.89C690.91,557.98 691.06,557.78 689.95,556.44C689.24,555.59 686.82,553.81 684.57,552.49C682.32,551.17 674.26,547.60 666.66,544.55C659.06,541.50 652.02,539.00 651.01,539.00C649.66,539.00 648.63,540.62 647.09,545.19C645.94,548.60 645.00,551.98 645.00,552.69C645.00,553.70 648.14,554.02 658.75,554.08C668.52,554.14 674.53,554.69 679.50,555.97C683.35,556.96 687.57,557.82 688.87,557.89zM264.14,550.97C264.50,550.99 264.46,549.54 264.05,547.75C263.65,545.96 262.58,543.07 261.67,541.32C260.76,539.57 259.08,537.84 257.94,537.48C256.79,537.12 255.66,537.01 255.43,537.24C255.19,537.47 256.91,540.65 259.25,544.30C261.59,547.95 263.79,550.95 264.14,550.97zM279.07,539.50C279.45,537.85 279.82,531.24 279.88,524.81C279.95,518.38 279.58,512.86 279.07,512.54C278.56,512.23 277.83,512.47 277.44,513.09C277.06,513.71 276.77,519.12 276.80,525.13C276.83,531.13 277.19,537.49 277.61,539.27C278.38,542.50 278.38,542.50 279.07,539.50zM672.25,536.92C672.66,536.96 673.00,536.60 673.00,536.10C673.00,535.61 670.54,532.95 667.54,530.21C664.53,527.46 659.31,523.37 655.92,521.11C652.54,518.85 649.15,517.00 648.39,517.00C647.62,517.00 647.00,517.92 647.00,519.05C647.00,520.18 647.65,522.35 648.43,523.87C649.22,525.40 650.58,527.23 651.44,527.95C652.31,528.67 657.18,530.96 662.26,533.05C667.34,535.13 671.84,536.87 672.25,536.92zM239.79,533.92C239.95,533.96 241.81,533.12 243.92,532.04C246.03,530.97 248.02,529.39 248.35,528.54C248.80,527.36 248.23,527.00 245.92,527.00C244.26,527.00 241.57,527.69 239.95,528.53C238.33,529.36 237.00,530.68 237.00,531.44C237.00,532.21 237.56,533.06 238.25,533.34C238.94,533.62 239.63,533.88 239.79,533.92zM225.79,530.81C226.81,530.61 227.63,529.37 227.82,527.74C228.03,525.91 227.59,524.78 226.50,524.36C225.60,524.02 224.39,524.21 223.81,524.79C223.22,525.38 223.04,527.03 223.41,528.49C223.86,530.27 224.63,531.03 225.79,530.81zM243.52,518.63C246.44,518.28 249.43,517.76 250.16,517.47C250.90,517.18 253.85,513.41 256.73,509.10C259.60,504.79 262.34,500.19 262.82,498.88C263.30,497.57 263.33,495.15 262.88,493.50C262.43,491.85 260.59,488.04 258.78,485.04C256.98,482.04 253.57,478.11 251.21,476.32C248.84,474.52 244.60,472.36 241.77,471.52C237.91,470.38 236.44,470.29 235.90,471.16C235.50,471.81 234.86,477.43 234.47,483.66C234.08,489.89 233.95,499.20 234.17,504.35C234.47,511.18 235.07,514.46 236.40,516.48C238.11,519.09 238.51,519.22 243.52,518.63zM490.08,508.00C489.57,508.00 487.24,506.54 484.91,504.75C482.57,502.96 480.47,500.92 480.23,500.21C479.92,499.26 480.57,499.08 482.65,499.55C484.22,499.90 486.74,501.51 488.25,503.11C489.76,504.72 491.00,506.47 491.00,507.02C491.00,507.56 490.58,508.00 490.08,508.00zM326.78,505.97C325.46,505.99 325.24,505.52 325.83,503.93C326.25,502.79 328.60,499.82 331.05,497.32C333.50,494.83 338.07,491.49 341.22,489.90C344.37,488.30 348.12,487.00 349.55,487.00C351.17,487.00 352.01,487.47 351.76,488.22C351.53,488.90 346.21,493.16 339.93,497.69C333.64,502.22 327.73,505.95 326.78,505.97zM223.25,501.96C223.66,501.98 224.00,501.36 224.00,500.57C224.00,499.78 222.00,491.16 219.54,481.40C217.09,471.64 214.50,463.07 213.78,462.35C213.06,461.63 210.05,460.58 207.10,460.02C204.14,459.46 198.62,459.00 194.83,459.00C190.93,459.00 186.36,459.66 184.31,460.51C182.32,461.35 177.49,464.45 173.59,467.41C169.69,470.37 164.57,473.75 162.21,474.93C159.86,476.11 158.20,477.51 158.52,478.04C158.85,478.57 161.07,479.00 163.45,479.00C165.83,479.00 171.54,479.69 176.14,480.54C180.74,481.39 188.79,483.40 194.04,485.01C199.66,486.73 206.03,489.54 209.54,491.85C212.82,494.01 217.07,497.15 219.00,498.85C220.93,500.54 222.84,501.94 223.25,501.96zM432.32,495.53C433.53,494.73 436.20,491.89 438.23,489.22C440.27,486.55 444.66,478.74 447.98,471.86C451.31,464.98 456.52,451.74 459.58,442.43C462.63,433.12 466.45,419.66 468.06,412.52C469.68,405.37 471.00,398.54 471.00,397.32C471.00,396.11 470.52,394.82 469.93,394.46C469.35,394.10 468.61,394.05 468.30,394.36C467.99,394.67 465.59,403.16 462.96,413.21C460.33,423.27 456.36,437.01 454.14,443.74C451.92,450.46 447.52,461.49 444.36,468.24C441.20,474.98 436.45,483.81 433.81,487.86C431.18,491.91 429.26,495.62 429.56,496.10C429.86,496.58 431.10,496.33 432.32,495.53zM420.55,496.00C421.39,496.00 424.62,490.57 428.43,482.75C431.98,475.46 436.30,465.23 438.02,460.00C439.74,454.77 442.23,446.00 443.55,440.50C444.88,435.00 447.12,423.07 448.53,414.00C449.95,404.93 451.98,393.45 453.05,388.50C454.12,383.55 456.36,376.72 458.03,373.31C459.70,369.91 462.46,365.95 464.17,364.51C465.90,363.06 468.21,362.03 469.39,362.20C470.63,362.38 472.22,363.94 473.25,366.00C474.21,367.93 475.00,371.41 475.00,373.75C475.00,377.75 475.17,378.00 477.83,378.00C479.50,378.00 481.55,378.96 482.86,380.35C484.42,382.01 485.09,384.02 485.16,387.19C485.21,389.65 484.74,392.61 484.13,393.76C483.51,394.91 480.83,397.26 478.17,398.98C473.56,401.97 473.26,402.45 471.66,409.31C470.74,413.26 469.71,418.59 469.37,421.14C468.79,425.51 468.92,425.85 471.63,427.17C474.27,428.46 474.49,428.98 474.36,433.76C474.25,438.03 474.56,439.04 476.12,439.54C477.15,439.87 478.48,441.02 479.06,442.11C479.64,443.19 479.83,444.97 479.48,446.06C479.13,447.16 477.73,448.79 476.37,449.68C475.00,450.57 473.01,453.02 471.94,455.11C470.87,457.21 470.00,459.61 470.00,460.46C470.00,461.31 470.86,462.00 471.91,462.00C472.96,462.00 476.02,460.26 478.71,458.14C481.40,456.01 485.86,451.73 488.62,448.63C491.39,445.53 495.91,439.03 498.68,434.18C501.45,429.33 505.18,421.57 506.97,416.93C508.76,412.29 512.25,402.65 514.74,395.50C517.22,388.35 521.90,377.21 525.14,370.75C528.37,364.28 533.96,354.04 537.55,347.99C541.14,341.94 546.80,334.08 550.12,330.53C553.44,326.99 559.04,322.26 562.58,320.03C566.11,317.79 569.00,315.58 569.00,315.11C569.00,314.63 568.39,313.74 567.64,313.12C566.89,312.49 562.94,311.56 558.86,311.05C554.77,310.53 547.85,308.98 543.47,307.60C539.08,306.22 533.66,304.80 531.42,304.44C528.87,304.04 524.93,304.41 520.92,305.43C517.39,306.33 511.72,308.36 508.32,309.95C504.92,311.53 499.30,314.75 495.82,317.11C492.35,319.46 485.90,325.01 481.50,329.45C477.10,333.88 469.43,343.35 464.45,350.50C459.47,357.65 454.74,363.50 453.95,363.50C452.91,363.50 452.58,362.52 452.79,360.00C452.95,358.07 454.66,353.31 456.60,349.40C458.54,345.50 463.58,337.86 467.81,332.44C472.04,327.02 478.65,319.93 482.50,316.69C486.35,313.45 491.98,309.55 495.01,308.01C498.04,306.47 504.56,303.98 509.51,302.46C514.45,300.95 518.91,299.35 519.41,298.90C519.94,298.42 519.79,297.45 519.04,296.54C518.33,295.69 517.11,295.00 516.33,295.00C515.55,295.00 513.91,293.91 512.70,292.59C511.49,291.26 506.00,288.28 500.50,285.96C495.00,283.64 487.47,280.70 483.76,279.44C480.06,278.17 472.19,276.37 466.29,275.44C458.05,274.15 451.50,273.88 438.03,274.25C423.53,274.66 419.29,275.13 413.50,276.99C409.65,278.22 404.02,280.49 401.00,282.03C397.98,283.57 393.88,286.10 391.89,287.66C389.91,289.22 385.93,292.41 383.05,294.75C380.18,297.09 377.41,299.00 376.91,299.00C376.41,299.00 376.00,298.34 376.00,297.54C376.00,296.73 378.52,293.25 381.59,289.81C384.67,286.36 387.78,282.38 388.51,280.97C389.24,279.57 390.14,275.28 390.51,271.46C390.89,267.54 390.68,260.78 390.03,256.00C389.39,251.32 387.56,242.27 385.95,235.88C384.35,229.49 381.64,220.27 379.93,215.38C378.21,210.50 375.06,202.75 372.93,198.16C370.79,193.57 367.05,187.04 364.61,183.66C362.17,180.27 355.24,172.66 349.21,166.75C343.18,160.84 337.41,155.95 336.38,155.88C335.34,155.82 333.61,155.87 332.51,155.99C331.42,156.11 328.27,157.34 325.51,158.73C322.76,160.12 318.93,162.48 317.00,163.98C315.07,165.47 310.35,168.41 306.50,170.51C302.65,172.61 296.78,176.24 293.45,178.57C290.12,180.91 285.80,184.59 283.84,186.75C281.88,188.92 278.37,193.51 276.03,196.96C273.68,200.41 270.05,206.67 267.95,210.87C265.86,215.06 262.55,222.96 260.60,228.42C258.65,233.88 256.66,238.74 256.18,239.22C255.67,239.73 249.21,239.42 240.90,238.47C232.98,237.57 223.35,236.18 219.50,235.38C215.65,234.58 207.85,232.54 202.16,230.85C194.06,228.44 190.49,227.87 185.66,228.19C182.27,228.42 177.91,229.38 175.97,230.31C174.03,231.25 169.08,234.98 164.97,238.60C160.86,242.23 155.66,246.27 153.41,247.60C151.16,248.92 146.79,250.51 143.70,251.13C139.03,252.07 137.25,251.99 133.11,250.63C130.37,249.73 127.65,249.00 127.06,249.00C126.48,249.00 126.00,249.49 126.00,250.09C126.00,250.68 127.67,252.59 129.72,254.34C131.76,256.08 136.31,260.20 139.82,263.50C143.33,266.80 147.09,270.74 148.17,272.25C149.25,273.77 152.06,280.57 154.40,287.37C156.74,294.17 159.84,301.76 161.29,304.23C162.73,306.70 165.98,311.25 168.50,314.34C171.04,317.45 177.46,323.10 182.87,326.96C188.26,330.80 195.65,335.34 199.29,337.05C205.06,339.75 207.90,340.33 220.91,341.52C229.15,342.28 237.83,343.39 240.19,344.00C242.56,344.61 250.12,346.94 257.00,349.18C263.88,351.43 272.13,354.35 275.35,355.68C278.57,357.02 281.80,357.97 282.53,357.80C283.54,357.57 283.20,355.92 281.13,351.00C279.62,347.43 278.56,343.71 278.77,342.75C278.98,341.79 279.51,341.00 279.96,341.00C280.41,341.00 282.43,342.69 284.46,344.75C286.49,346.81 289.19,350.52 290.46,353.00C291.73,355.48 294.13,361.32 295.80,366.00C297.46,370.68 299.13,375.29 299.52,376.25C299.90,377.21 300.62,378.00 301.11,378.00C301.60,378.00 302.00,376.22 302.00,374.04C302.00,371.86 300.43,365.68 298.50,360.29C296.53,354.76 292.18,345.88 288.53,339.90C284.97,334.07 280.68,326.25 279.01,322.51C277.33,318.78 274.63,310.46 273.01,304.04C271.39,297.61 269.76,289.78 269.39,286.64C269.00,283.37 268.27,281.08 267.67,281.28C267.10,281.47 266.20,282.95 265.68,284.56C265.16,286.18 264.29,288.06 263.74,288.75C263.20,289.44 261.89,290.00 260.83,290.00C259.57,290.00 258.39,288.79 257.45,286.53C256.65,284.62 256.00,280.86 256.00,278.16C256.00,275.46 255.30,271.28 254.45,268.88C253.20,265.35 253.11,263.64 254.00,260.10C254.61,257.68 255.77,254.42 256.58,252.85C257.39,251.28 258.83,250.00 259.78,250.00C260.72,250.01 262.99,250.92 264.81,252.03C266.67,253.16 268.80,255.67 269.67,257.75C270.74,260.32 271.04,263.04 270.62,266.57C270.09,271.09 270.30,271.93 272.43,273.93C273.76,275.18 275.41,277.57 276.10,279.24C277.25,282.02 277.15,282.46 275.05,284.16C272.73,286.04 272.73,286.04 274.77,291.27C275.88,294.15 277.89,299.06 279.22,302.18C280.55,305.30 282.24,308.59 282.98,309.48C284.19,310.94 284.48,310.95 285.87,309.56C287.25,308.18 287.17,307.25 285.02,300.26C283.71,295.99 282.61,291.05 282.57,289.27C282.53,287.49 282.95,285.92 283.49,285.77C284.04,285.62 285.47,287.98 286.66,291.00C287.86,294.02 289.81,301.68 291.01,308.00C292.20,314.32 293.71,321.94 294.37,324.93C295.02,327.91 296.05,330.52 296.65,330.72C297.26,330.92 298.02,330.38 298.35,329.53C298.68,328.67 298.28,324.13 297.46,319.44C296.64,314.76 294.17,303.62 291.97,294.71C289.76,285.79 286.83,274.79 285.45,270.26C283.40,263.52 282.43,261.76 280.15,260.58C278.23,259.58 276.95,257.79 276.07,254.84C274.79,250.57 274.80,250.53 278.14,247.74C280.93,245.41 281.52,244.22 281.62,240.68C281.68,238.33 282.48,234.98 283.39,233.22C284.36,231.34 286.11,229.76 287.66,229.37C289.10,229.01 291.44,229.12 292.86,229.62C294.28,230.12 296.50,232.10 297.81,234.01C299.75,236.86 300.10,238.45 299.76,242.69C299.38,247.50 299.52,247.91 301.79,248.48C303.91,249.02 304.15,249.50 303.61,252.20C303.27,253.91 302.49,255.91 301.87,256.65C301.26,257.39 300.14,258.00 299.38,258.00C298.32,258.00 298.02,259.79 298.09,265.75C298.14,270.01 298.53,275.75 298.95,278.50C299.63,282.85 299.75,282.21 299.87,273.58C299.94,268.13 300.27,263.93 300.59,264.26C300.91,264.58 301.81,271.97 302.57,280.67C303.34,289.38 304.87,299.62 305.97,303.43C307.06,307.24 308.38,310.78 308.89,311.29C309.46,311.86 310.15,311.50 310.67,310.36C311.15,309.34 311.39,298.38 311.21,286.00C311.03,273.62 310.83,260.80 310.76,257.50C310.67,253.14 311.22,250.38 312.77,247.39C314.15,244.71 316.18,242.67 318.57,241.53C322.11,239.85 322.34,239.86 324.87,241.75C326.32,242.83 328.26,245.68 329.20,248.10C330.13,250.52 330.92,254.47 330.95,256.88C330.99,260.49 330.41,261.91 327.61,265.01C324.69,268.24 324.14,269.69 323.57,275.63C323.21,279.41 323.35,289.62 323.89,298.33C324.62,309.98 325.31,314.82 326.50,316.65C327.82,318.65 328.41,318.90 329.57,317.94C330.38,317.27 331.01,314.97 331.02,312.63C331.02,310.36 331.36,308.02 331.77,307.43C332.17,306.84 333.31,306.05 334.30,305.69C335.83,305.12 336.10,303.84 336.08,297.26C336.07,292.99 336.44,285.85 336.92,281.38C337.39,276.92 338.56,271.62 339.52,269.60C340.48,267.58 342.20,265.27 343.35,264.47C344.50,263.66 346.46,263.00 347.70,263.00C348.95,263.00 350.58,264.00 351.37,265.25C352.15,266.49 353.26,270.33 353.85,273.80C354.47,277.46 354.56,281.03 354.06,282.34C353.59,283.57 352.49,285.18 351.60,285.91C350.72,286.65 350.00,288.32 350.00,289.63C350.00,291.84 350.29,291.98 353.80,291.42C356.60,290.97 357.94,291.22 358.91,292.39C359.68,293.32 359.97,295.00 359.60,296.47C359.25,297.84 356.98,301.21 354.54,303.96C352.10,306.70 349.63,310.64 349.05,312.72C348.47,314.80 347.71,318.86 347.36,321.75C346.93,325.29 347.08,327.00 347.83,327.00C348.43,327.00 351.80,325.43 355.30,323.50C358.80,321.57 361.97,320.00 362.33,320.00C362.70,320.00 363.00,320.57 363.00,321.28C363.00,321.98 359.74,326.19 355.75,330.64C351.76,335.09 347.16,341.15 345.51,344.11C343.87,347.08 342.20,350.29 341.80,351.25C341.31,352.42 341.52,353.00 342.44,353.00C343.20,353.00 346.22,351.11 349.16,348.80C352.10,346.50 357.55,342.00 361.28,338.80C365.00,335.61 368.28,333.00 368.55,333.00C368.83,333.00 368.36,334.34 367.51,335.97C366.67,337.61 362.83,342.87 358.98,347.66C354.48,353.27 352.33,356.73 352.95,357.35C353.57,357.97 354.56,357.81 355.71,356.91C356.69,356.14 360.52,352.84 364.22,349.58C367.91,346.32 373.23,340.82 376.04,337.36C378.85,333.90 384.60,328.56 388.82,325.51C393.05,322.45 401.68,315.93 408.00,311.00C414.32,306.08 422.99,300.22 427.26,297.97C431.52,295.73 438.05,293.25 441.76,292.46C445.46,291.68 449.74,291.03 451.25,291.02C452.76,291.01 454.00,291.45 454.00,292.00C454.00,292.55 447.63,296.14 439.85,299.97C432.06,303.81 419.81,310.89 412.63,315.71C405.44,320.54 396.74,327.11 393.30,330.33C389.86,333.55 386.09,337.74 384.91,339.64C383.73,341.55 383.06,343.39 383.40,343.73C383.75,344.08 386.16,342.84 388.77,340.97C391.37,339.11 396.35,335.65 399.83,333.29C403.31,330.93 406.84,329.00 407.67,329.00C408.85,329.00 408.55,330.08 406.37,333.75C404.81,336.36 402.02,341.65 400.15,345.50C398.28,349.35 395.01,357.80 392.88,364.28C390.75,370.76 389.00,377.15 389.00,378.49C389.00,379.83 389.85,384.65 390.90,389.21C391.94,393.77 393.37,401.55 394.08,406.50C394.78,411.45 395.31,422.02 395.26,430.00C395.20,437.98 395.61,446.29 396.18,448.48C397.20,452.47 397.20,452.47 399.10,450.12C400.15,448.83 401.00,447.06 401.00,446.19C401.00,444.95 401.27,444.87 402.20,445.80C402.86,446.46 403.75,447.00 404.17,447.00C404.60,447.00 405.68,444.41 406.58,441.25C407.48,438.09 408.58,435.12 409.01,434.65C409.44,434.18 410.10,438.23 410.47,443.65C410.84,449.07 411.38,454.18 411.69,455.00C412.07,456.04 412.74,455.44 413.87,453.00C415.20,450.14 415.48,446.19 415.39,431.25C415.31,417.47 415.58,413.00 416.50,413.00C417.17,413.00 419.42,414.34 421.48,415.99C423.55,417.63 425.62,418.74 426.08,418.45C426.54,418.16 426.46,416.71 425.89,415.21C425.31,413.70 425.11,409.63 425.44,406.00C425.76,402.43 426.05,397.70 426.09,395.50C426.13,393.30 425.85,389.84 425.46,387.82C424.91,384.92 425.21,383.51 426.88,381.17C428.05,379.53 429.00,377.55 429.00,376.76C429.00,375.97 427.88,374.81 426.50,374.18C424.61,373.32 424.00,372.28 424.00,369.92C424.00,368.21 424.73,365.27 425.62,363.39C426.51,361.51 428.57,358.86 430.20,357.49C431.88,356.07 434.42,355.00 436.09,355.00C438.32,355.00 439.50,355.77 440.97,358.20C442.04,359.96 443.39,363.60 443.97,366.29C444.91,370.66 444.77,371.63 442.77,375.19C440.53,379.18 440.53,379.18 443.26,381.17C444.83,382.31 446.00,384.12 446.00,385.39C446.00,386.62 445.34,388.49 444.53,389.56C443.51,390.91 443.05,394.12 443.03,400.08C443.01,404.79 442.51,413.57 441.91,419.58C441.31,425.58 439.29,436.53 437.40,443.90C435.52,451.27 432.35,461.39 430.36,466.40C428.37,471.40 424.78,479.72 422.38,484.87C419.99,490.02 418.27,494.63 418.57,495.12C418.87,495.60 419.76,496.00 420.55,496.00zM409.43,491.39C410.18,491.10 412.37,488.31 414.28,485.18C416.20,482.06 419.40,476.23 421.41,472.23C423.41,468.23 425.95,462.65 427.07,459.83C428.18,457.00 429.74,451.59 430.54,447.80C431.34,444.01 432.64,435.19 433.44,428.21C434.24,421.22 435.20,409.76 435.58,402.75C436.27,390.00 436.27,390.00 433.69,390.00C432.28,390.00 430.82,390.48 430.46,391.07C430.09,391.66 429.60,401.62 429.37,413.21C429.05,429.21 428.48,436.38 426.99,443.05C425.91,447.88 424.30,454.01 423.41,456.67C422.52,459.33 420.28,464.65 418.43,468.50C416.59,472.35 413.26,478.80 411.04,482.84C408.81,486.88 407.23,490.57 407.53,491.05C407.82,491.52 408.68,491.68 409.43,491.39zM611.09,484.00C610.60,484.00 607.86,480.85 605.00,477.01C602.15,473.16 596.97,467.40 593.49,464.21C589.77,460.80 583.71,456.69 578.83,454.25C574.25,451.96 565.64,448.74 559.70,447.08C553.76,445.43 546.12,443.56 542.71,442.95C539.29,442.33 535.83,441.44 535.00,440.98C533.81,440.31 534.08,439.92 536.32,439.07C537.86,438.48 541.14,438.00 543.61,438.00C546.07,438.00 551.55,438.71 555.79,439.57C560.03,440.44 567.51,442.48 572.42,444.11C577.33,445.74 584.93,448.94 589.32,451.23C593.71,453.51 599.61,457.65 602.44,460.44C605.27,463.22 608.58,467.63 609.79,470.24C611.04,472.92 612.00,476.94 612.00,479.49C612.00,481.97 611.59,484.00 611.09,484.00zM124.70,480.00C125.72,480.00 127.67,479.24 129.03,478.31C130.39,477.39 135.16,473.19 139.64,468.98C144.92,464.02 150.53,459.92 155.64,457.28C159.96,455.04 168.00,451.75 173.50,449.97C182.18,447.16 185.29,446.67 197.00,446.25C209.23,445.82 212.49,446.11 231.63,449.38C243.25,451.37 258.47,453.53 265.46,454.19C275.18,455.11 281.14,455.12 290.83,454.24C298.03,453.58 308.68,451.75 315.50,450.00C322.10,448.31 332.90,445.79 339.50,444.41C346.10,443.02 353.23,441.63 355.34,441.30C357.45,440.98 359.42,440.07 359.72,439.29C360.02,438.50 358.88,436.44 357.13,434.64C355.41,432.86 354.00,431.09 354.00,430.70C354.00,430.32 354.69,430.00 355.52,430.00C356.36,430.00 360.19,431.58 364.02,433.51C367.86,435.44 371.00,436.64 371.00,436.16C371.00,435.68 367.34,431.07 362.87,425.92C358.40,420.76 354.28,415.52 353.71,414.27C353.14,413.02 352.93,411.73 353.25,411.41C353.57,411.10 354.88,411.38 356.16,412.04C357.45,412.70 361.65,415.62 365.50,418.52C369.35,421.42 374.51,425.64 376.96,427.89C379.41,430.15 381.78,432.00 382.21,432.00C382.64,432.00 383.00,431.58 383.00,431.06C383.00,430.54 380.55,426.71 377.56,422.54C374.57,418.37 371.83,414.04 371.47,412.90C371.11,411.77 371.08,410.59 371.40,410.27C371.71,409.95 373.63,411.45 375.66,413.60C377.68,415.74 380.85,419.86 382.70,422.75C384.55,425.64 386.48,428.00 387.00,428.00C387.51,428.00 388.45,427.03 389.09,425.83C389.86,424.40 390.07,420.28 389.72,413.58C389.43,408.04 388.45,400.80 387.55,397.50C386.65,394.20 384.97,389.55 383.82,387.16C382.67,384.77 379.41,380.44 376.58,377.54C373.74,374.63 369.43,371.24 366.99,370.00C364.39,368.67 359.93,367.52 356.22,367.23C349.88,366.72 349.88,366.72 344.91,372.10C342.17,375.06 340.37,377.62 340.90,377.80C341.43,377.98 343.13,377.48 344.68,376.70C346.23,375.92 348.95,375.01 350.71,374.68C352.48,374.34 354.18,374.49 354.50,375.00C354.82,375.51 353.18,377.31 350.86,378.99C348.54,380.67 342.34,383.39 337.07,385.03C331.81,386.68 322.10,389.19 315.50,390.61C308.90,392.03 301.25,393.88 298.50,394.73C295.75,395.58 291.48,397.30 289.00,398.55C286.52,399.80 282.91,402.33 280.97,404.16C279.03,406.00 275.71,409.64 273.60,412.25C271.49,414.86 269.36,417.00 268.88,417.00C268.40,417.00 268.00,415.67 268.00,414.04C268.00,412.41 268.89,408.81 269.99,406.04C271.29,402.73 271.58,401.00 270.82,401.00C270.19,401.00 267.72,402.14 265.34,403.54C262.95,404.94 261.00,405.88 261.00,405.62C261.00,405.37 261.28,404.43 261.62,403.54C261.97,402.65 263.88,401.09 265.87,400.08C267.87,399.07 270.87,397.95 272.54,397.59C274.21,397.23 277.10,396.01 278.96,394.88C281.60,393.27 282.03,392.63 280.92,391.93C280.14,391.43 276.77,391.02 273.44,391.02C269.96,391.01 266.60,390.43 265.54,389.65C263.82,388.39 263.91,388.23 266.93,387.17C268.71,386.55 272.37,385.75 275.06,385.40C277.76,385.04 279.75,384.40 279.49,383.98C279.22,383.55 276.06,382.69 272.45,382.06C268.83,381.44 259.50,380.89 251.69,380.84C242.45,380.79 234.01,381.37 227.50,382.49C222.00,383.44 212.32,385.78 206.00,387.70C199.68,389.61 193.04,391.42 191.25,391.70C189.30,392.01 188.00,391.79 188.00,391.16C188.00,390.58 189.49,388.97 191.30,387.58C193.12,386.20 197.12,383.95 200.20,382.59C203.28,381.23 208.43,379.42 211.65,378.57C214.87,377.72 224.92,376.08 233.99,374.93C243.06,373.77 251.10,372.48 251.86,372.06C252.86,371.50 252.37,370.97 250.10,370.18C248.37,369.58 241.22,368.57 234.22,367.94C227.23,367.32 221.34,366.65 221.15,366.47C220.96,366.28 222.76,365.56 225.15,364.86C227.65,364.14 234.39,363.63 241.00,363.69C247.32,363.74 256.10,364.50 260.50,365.39C264.90,366.27 269.40,366.99 270.50,366.97C272.31,366.94 272.24,366.71 269.80,364.56C268.32,363.25 263.38,360.75 258.83,359.00C254.28,357.24 247.17,354.94 243.03,353.87C238.89,352.81 231.22,351.21 226.00,350.33C220.04,349.32 210.16,348.69 199.50,348.64C184.20,348.56 181.85,348.78 176.00,350.85C172.43,352.11 166.16,354.94 162.08,357.13C157.99,359.31 151.82,363.36 148.36,366.11C144.90,368.87 139.33,374.52 135.99,378.67C132.65,382.82 128.59,388.85 126.97,392.06C125.35,395.27 123.02,401.41 121.79,405.70C119.97,412.04 119.56,416.02 119.56,427.00C119.56,434.43 120.13,443.03 120.83,446.12C121.52,449.21 122.69,452.56 123.43,453.57C124.66,455.25 124.97,455.00 127.28,450.44C128.66,447.71 130.77,444.36 131.97,442.99C134.15,440.50 134.15,440.50 133.56,443.00C133.24,444.38 132.73,447.30 132.44,449.50C132.15,451.70 132.36,454.17 132.92,454.99C133.71,456.18 134.17,456.23 135.16,455.24C135.84,454.56 136.76,454.00 137.20,454.00C137.64,454.00 138.00,454.41 138.00,454.91C138.00,455.41 135.95,458.33 133.45,461.40C130.95,464.47 127.98,467.47 126.85,468.08C125.13,469.00 124.32,468.72 121.85,466.36C119.39,464.00 118.75,463.78 117.97,465.02C117.45,465.83 117.02,468.22 117.02,470.33C117.00,473.24 117.70,474.86 119.92,477.08C121.53,478.68 123.68,480.00 124.70,480.00zM669.25,445.97C670.76,445.99 672.00,445.56 672.00,445.01C672.00,444.47 670.31,442.98 668.25,441.70C666.19,440.42 663.10,438.81 661.38,438.12C659.66,437.43 656.51,437.01 654.38,437.18C652.25,437.36 650.50,437.94 650.50,438.49C650.50,439.03 651.85,440.14 653.50,440.94C655.15,441.75 658.75,443.21 661.50,444.18C664.25,445.14 667.74,445.95 669.25,445.97zM686.50,432.84C690.98,432.95 693.83,432.36 697.76,430.53C700.66,429.18 706.06,426.11 709.76,423.71C713.47,421.31 717.12,418.59 717.87,417.67C718.63,416.75 719.03,416.00 718.77,416.00C718.51,416.00 711.37,418.20 702.90,420.89C694.43,423.59 684.18,426.77 680.13,427.97C676.06,429.18 673.15,430.54 673.63,431.00C674.11,431.47 675.85,432.04 677.50,432.27C679.15,432.51 683.20,432.76 686.50,432.84zM627.73,429.99C629.25,429.98 632.75,428.93 635.50,427.65C638.25,426.37 646.12,423.47 653.00,421.21C659.88,418.94 669.10,416.20 673.50,415.12C677.90,414.04 684.98,412.61 689.23,411.95C693.90,411.21 696.71,410.34 696.33,409.73C695.94,409.09 691.44,408.93 684.10,409.29C677.72,409.61 668.23,410.76 663.00,411.86C657.77,412.96 650.14,414.79 646.02,415.93C641.91,417.07 635.61,419.13 632.02,420.51C628.44,421.89 624.85,423.44 624.06,423.94C622.89,424.68 622.84,425.35 623.79,427.43C624.64,429.29 625.72,430.00 627.73,429.99zM407.71,418.00C406.72,418.00 404.80,416.90 403.45,415.55C401.45,413.54 401.00,412.09 401.00,407.65C401.00,404.66 401.89,399.35 402.98,395.86C404.07,392.36 405.87,388.04 406.97,386.25C408.14,384.34 409.79,383.00 410.96,383.00C412.16,383.00 413.56,384.19 414.49,385.98C415.34,387.62 416.32,391.03 416.66,393.56C417.01,396.09 416.69,401.36 415.96,405.33C415.02,410.39 413.87,413.31 412.07,415.25C410.66,416.76 408.70,418.00 407.71,418.00zM453.86,418.00C455.30,418.00 456.43,416.01 458.82,409.25C460.52,404.44 462.20,399.27 462.56,397.78C463.10,395.49 462.78,394.86 460.57,393.85C458.75,393.02 457.63,392.97 456.90,393.70C456.33,394.27 454.99,398.71 453.93,403.57C452.87,408.43 452.00,413.66 452.00,415.20C452.00,417.26 452.49,418.00 453.86,418.00zM409.23,413.00C409.69,413.00 410.33,412.30 410.66,411.44C410.99,410.58 410.74,408.73 410.11,407.33C409.15,405.24 408.69,405.01 407.48,406.02C406.66,406.69 406.00,408.00 406.00,408.92C406.00,409.85 406.54,411.14 407.20,411.80C407.86,412.46 408.77,413.00 409.23,413.00zM595.63,411.33C597.35,411.05 602.53,409.53 607.13,407.94C615.50,405.07 615.50,405.07 608.25,405.68C601.86,406.22 601.00,406.09 601.00,404.59C601.00,403.65 602.89,400.10 605.20,396.70C607.51,393.29 610.94,388.49 612.81,386.04C614.68,383.58 615.74,381.41 615.17,381.22C614.60,381.03 612.87,381.54 611.32,382.35C609.77,383.17 607.07,385.33 605.33,387.16C603.58,389.00 599.42,394.52 596.08,399.44C592.73,404.35 590.00,408.93 590.00,409.60C590.00,410.28 590.56,411.06 591.25,411.34C591.94,411.61 593.91,411.61 595.63,411.33zM646.41,400.00C648.97,400.00 652.51,399.39 654.28,398.65C656.05,397.91 658.96,396.07 660.75,394.56C662.54,393.05 663.75,391.41 663.44,390.91C663.13,390.41 661.84,390.00 660.58,390.00C659.31,390.00 655.11,391.58 651.25,393.51C647.38,395.45 643.67,397.70 642.99,398.51C641.93,399.79 642.40,400.00 646.41,400.00zM620.55,398.00C620.85,398.00 622.54,397.26 624.30,396.35C626.06,395.44 629.86,392.95 632.75,390.81C635.64,388.68 638.00,386.50 638.00,385.97C638.00,385.44 637.76,385.00 637.47,385.00C637.18,385.00 635.33,385.67 633.36,386.49C631.39,387.32 627.58,389.60 624.89,391.58C622.20,393.55 620.00,395.81 620.00,396.59C620.00,397.36 620.25,398.00 620.55,398.00zM471.57,391.00C472.43,391.00 474.01,390.53 475.09,389.95C476.17,389.37 476.79,388.47 476.47,387.95C476.15,387.43 474.11,387.00 471.94,387.00C469.19,387.00 468.00,386.57 468.00,385.57C468.00,384.79 467.26,383.40 466.36,382.50C464.90,381.04 464.55,381.03 463.22,382.35C462.40,383.17 462.00,384.55 462.33,385.42C462.66,386.29 463.97,387.00 465.23,387.00C466.49,387.00 468.08,387.90 468.77,389.00C469.45,390.10 470.72,391.00 471.57,391.00zM125.00,378.88C125.28,378.93 126.11,378.58 126.85,378.11C127.59,377.64 128.03,376.42 127.84,375.39C127.58,374.05 125.66,373.01 120.99,371.69C117.02,370.57 110.65,369.79 104.60,369.68C97.73,369.55 94.57,369.86 94.29,370.68C94.06,371.33 94.90,372.41 96.15,373.08C97.40,373.75 104.29,375.31 111.46,376.54C118.63,377.77 124.72,378.83 125.00,378.88zM320.55,375.60C321.30,374.57 322.10,368.42 322.54,360.19C323.02,351.43 322.83,340.38 322.01,329.50C321.31,320.15 320.53,302.96 320.27,291.29C319.91,274.85 319.49,269.82 318.41,268.93C317.32,268.02 316.86,268.18 316.26,269.64C315.84,270.66 315.56,278.25 315.64,286.50C315.72,294.75 316.17,317.93 316.65,338.00C317.13,358.07 317.92,375.13 318.41,375.90C319.16,377.07 319.51,377.02 320.55,375.60zM575.75,372.36C573.52,372.91 573.00,372.70 573.00,371.25C573.00,370.26 574.69,366.54 576.75,362.98C578.81,359.41 584.33,352.67 589.00,348.00C595.92,341.07 599.36,338.53 607.50,334.34C613.00,331.51 621.15,328.05 625.60,326.66C630.06,325.27 638.44,323.42 644.23,322.56C650.02,321.70 657.54,321.00 660.94,321.00C664.35,321.00 668.00,321.47 669.07,322.04C670.13,322.60 671.00,323.48 671.00,323.98C671.00,324.48 666.39,328.64 660.75,333.22C655.11,337.81 648.92,342.69 647.00,344.08C645.08,345.47 641.71,347.64 639.52,348.90C637.33,350.17 632.29,352.49 628.32,354.07C624.35,355.65 616.46,358.11 610.80,359.54C605.13,360.97 595.55,364.29 589.50,366.91C583.45,369.54 577.26,371.99 575.75,372.36zM307.97,371.00C308.44,371.00 309.07,369.31 309.37,367.25C309.67,365.19 310.19,359.45 310.53,354.50C310.88,349.36 310.66,342.50 310.02,338.50C309.40,334.65 306.18,321.15 302.87,308.50C299.56,295.85 296.01,279.75 294.97,272.72C293.93,265.69 292.81,259.51 292.48,258.97C292.15,258.44 290.78,258.00 289.44,258.00C288.10,258.00 287.00,258.48 287.00,259.06C287.00,259.65 290.88,276.41 295.61,296.31C303.42,329.11 304.32,333.91 305.18,347.50C305.70,355.75 306.35,364.41 306.63,366.75C306.90,369.09 307.51,371.00 307.97,371.00zM144.67,357.86C145.31,357.94 146.55,357.73 147.42,357.39C148.29,357.06 149.00,356.22 149.00,355.53C149.00,354.84 143.94,349.37 137.75,343.38C131.56,337.40 120.88,327.99 114.00,322.47C107.12,316.96 98.35,310.22 94.50,307.50C90.65,304.78 83.00,299.15 77.50,294.99C72.00,290.82 64.68,285.45 61.24,283.05C57.79,280.66 54.70,278.96 54.37,279.29C54.04,279.62 56.04,283.41 58.81,287.70C61.58,291.99 67.30,300.79 71.53,307.26C75.75,313.72 80.40,319.84 81.85,320.86C83.31,321.88 88.55,324.49 93.50,326.66C98.45,328.83 106.89,333.20 112.25,336.37C117.61,339.53 122.00,342.54 122.00,343.06C122.00,343.58 121.33,344.00 120.52,344.00C119.71,344.00 114.27,342.62 108.44,340.94C102.61,339.25 94.25,336.50 89.86,334.83C85.48,333.15 81.67,331.99 81.41,332.25C81.15,332.51 82.87,335.02 85.22,337.83C87.57,340.63 91.48,344.34 93.90,346.07C96.31,347.81 99.69,349.80 101.40,350.50C103.10,351.21 112.15,352.94 121.50,354.36C130.85,355.78 139.62,357.12 141.00,357.33C142.38,357.55 144.03,357.79 144.67,357.86zM590.93,355.00C591.45,355.00 593.14,354.51 594.68,353.91C596.23,353.30 603.46,351.06 610.74,348.92C619.59,346.31 628.60,342.71 637.91,338.04C645.57,334.21 652.13,330.60 652.48,330.03C652.83,329.46 652.28,329.00 651.26,329.00C650.24,329.00 645.15,329.93 639.95,331.06C634.75,332.19 627.22,334.22 623.21,335.57C619.20,336.91 613.12,339.41 609.71,341.13C606.29,342.84 600.46,346.48 596.75,349.21C593.04,351.95 590.00,354.37 590.00,354.59C590.00,354.82 590.42,355.00 590.93,355.00zM554.84,349.79C561.50,349.50 561.50,349.50 564.16,344.05C565.62,341.05 567.62,336.22 568.60,333.33C569.59,330.43 570.12,327.79 569.79,327.46C569.46,327.13 567.31,327.82 565.00,329.00C562.69,330.18 558.79,333.00 556.33,335.26C553.87,337.53 550.73,341.31 549.35,343.66C547.97,346.02 547.14,348.42 547.51,349.01C547.91,349.66 550.85,349.97 554.84,349.79zM162.34,347.72C162.98,347.51 163.65,346.58 163.82,345.67C164.03,344.60 156.93,336.78 144.03,323.88C125.55,305.40 123.69,303.81 121.08,304.33C118.87,304.78 116.85,303.97 111.82,300.67C108.28,298.35 101.58,294.55 96.94,292.24C92.30,289.93 87.15,287.78 85.50,287.47C82.50,286.91 82.50,286.91 85.00,288.70C86.38,289.68 94.84,296.00 103.82,302.75C112.80,309.50 121.80,316.28 123.82,317.82C125.84,319.36 131.78,323.82 137.00,327.73C142.22,331.64 149.80,337.82 153.84,341.47C157.88,345.12 161.70,347.93 162.34,347.72zM338.60,340.92C339.38,340.27 340.65,337.43 341.43,334.62C342.20,331.80 343.31,325.23 343.90,320.00C344.48,314.77 345.43,303.57 346.02,295.10C346.76,284.58 346.77,279.37 346.07,278.67C345.37,277.97 344.57,278.79 343.54,281.25C342.71,283.23 341.36,292.42 340.54,301.68C339.72,310.93 338.39,323.43 337.59,329.45C336.79,335.48 336.37,340.79 336.66,341.25C336.94,341.72 337.82,341.57 338.60,340.92zM259.81,340.81C258.10,341.01 256.36,340.36 255.04,339.04C253.38,337.38 253.17,336.55 254.01,334.98C254.59,333.89 255.85,333.00 256.81,333.00C257.77,333.00 259.58,333.72 260.83,334.60C262.26,335.60 263.00,337.00 262.81,338.35C262.59,339.84 261.68,340.59 259.81,340.81zM276.82,331.05C276.63,331.60 274.46,330.74 271.99,329.14C269.52,327.54 261.09,319.91 253.25,312.20C245.41,304.49 239.00,297.67 239.00,297.05C239.00,296.27 239.56,296.23 240.85,296.92C241.87,297.47 244.58,299.48 246.88,301.40C249.17,303.31 253.48,306.27 256.45,307.97C259.42,309.67 264.04,313.03 266.71,315.43C269.39,317.84 272.83,322.11 274.36,324.93C275.90,327.74 277.00,330.50 276.82,331.05zM265.66,304.90C265.02,304.84 260.45,301.67 255.50,297.85C250.55,294.03 241.55,288.41 235.50,285.34C229.45,282.28 221.74,277.81 218.37,275.42C215.00,273.03 211.98,270.38 211.65,269.54C211.33,268.69 211.33,268.00 211.66,268.00C211.99,268.00 215.46,269.15 219.38,270.56C223.30,271.97 230.10,275.21 234.50,277.76C238.90,280.31 246.81,285.46 252.07,289.19C257.33,292.93 262.56,297.00 263.68,298.24C264.81,299.49 265.97,301.51 266.27,302.75C266.60,304.12 266.36,304.96 265.66,304.90zM603.13,264.00C604.30,264.00 608.23,262.55 611.88,260.79C616.10,258.74 620.67,255.37 624.50,251.49C627.80,248.15 632.39,242.06 634.70,237.96C637.01,233.86 640.08,226.45 641.52,221.50C643.56,214.52 644.27,209.46 644.68,199.00C645.12,187.92 644.86,183.80 643.23,176.00C642.14,170.78 640.54,164.81 639.68,162.75C638.81,160.69 637.72,159.00 637.24,159.00C636.77,159.00 635.64,162.12 634.72,165.94C633.81,169.75 630.97,178.64 628.41,185.69C625.86,192.73 621.12,204.71 617.87,212.29C614.63,219.88 609.73,230.56 606.99,236.03C604.24,241.49 602.00,246.42 602.00,246.98C602.00,247.54 602.45,248.00 602.99,248.00C603.53,248.00 606.97,245.96 610.61,243.46C614.26,240.96 617.45,239.12 617.70,239.37C617.95,239.61 617.38,241.32 616.44,243.16C615.50,245.00 612.59,249.20 609.97,252.50C607.36,255.80 604.27,259.36 603.11,260.40C601.95,261.45 601.00,262.69 601.00,263.15C601.00,263.62 601.96,264.00 603.13,264.00zM588.07,254.00C588.54,254.00 589.43,252.09 590.06,249.75C590.68,247.41 593.68,239.65 596.72,232.50C599.76,225.35 608.07,207.35 615.20,192.50C622.32,177.65 629.47,163.44 631.07,160.91C632.68,158.39 634.00,155.80 634.00,155.16C634.00,154.52 633.31,154.00 632.46,154.00C631.61,154.00 628.63,156.14 625.84,158.74C623.05,161.35 616.38,168.44 611.02,174.49C605.66,180.55 598.94,188.59 596.09,192.37C593.23,196.15 588.91,203.21 586.47,208.06C584.03,212.91 581.13,220.16 580.02,224.17C578.91,228.18 578.00,233.35 578.00,235.67C578.00,237.99 578.43,240.15 578.96,240.47C579.48,240.80 580.66,239.62 581.57,237.86C582.81,235.47 583.42,235.02 583.98,236.08C584.39,236.86 584.99,240.43 585.31,244.01C585.62,247.59 586.18,251.31 586.55,252.26C586.91,253.22 587.60,254.00 588.07,254.00zM325.96,208.36C325.53,208.83 324.74,208.38 324.19,207.35C323.64,206.33 322.70,202.82 322.10,199.56C321.49,196.30 321.00,190.42 321.00,186.50C321.00,182.57 321.70,177.01 322.55,174.14C323.40,171.27 325.43,167.47 327.05,165.71C329.99,162.50 329.99,162.50 329.60,181.50C329.36,193.08 328.72,201.87 327.97,204.00C327.29,205.93 326.38,207.89 325.96,208.36zM475.64,146.00C475.81,146.00 476.89,142.74 478.05,138.75C479.20,134.76 481.51,127.11 483.18,121.75C484.85,116.39 486.61,112.00 487.11,112.00C487.60,112.00 488.00,119.48 488.00,128.62C488.00,143.00 488.19,145.08 489.45,144.05C490.24,143.39 491.64,140.59 492.55,137.84C493.47,135.08 494.57,128.71 495.00,123.67C495.44,118.46 495.36,110.39 494.80,105.00C494.26,99.78 493.26,94.92 492.59,94.21C491.91,93.51 490.59,93.22 489.65,93.58C488.72,93.94 486.20,97.23 484.06,100.89C481.92,104.56 479.26,110.27 478.14,113.59C477.02,116.91 475.63,122.53 475.06,126.07C474.48,129.60 474.01,135.24 474.01,138.58C474.00,141.93 474.30,144.97 474.67,145.33C475.03,145.70 475.47,146.00 475.64,146.00zM370.30,139.50C371.02,138.27 371.45,133.26 371.41,126.50C371.37,120.15 370.61,112.00 369.60,107.22C368.64,102.67 366.52,94.80 364.88,89.72C363.24,84.65 361.49,79.23 361.00,77.68C360.36,75.69 360.43,74.98 361.23,75.24C361.86,75.45 363.82,78.25 365.60,81.47C367.38,84.68 371.19,93.65 374.06,101.40C376.94,109.16 379.73,115.95 380.27,116.50C380.92,117.16 381.06,115.09 380.69,110.50C380.38,106.65 379.16,100.35 377.98,96.50C376.80,92.65 374.31,86.35 372.46,82.50C370.61,78.65 366.64,72.80 363.63,69.50C358.98,64.38 357.91,63.66 356.34,64.59C355.33,65.18 352.99,69.43 351.14,74.02C349.28,78.61 347.16,85.77 346.42,89.93C345.68,94.09 345.05,101.15 345.03,105.62C345.02,110.08 345.69,117.67 346.52,122.48C347.36,127.28 348.65,132.35 349.38,133.75C350.25,135.41 350.95,135.88 351.42,135.13C351.82,134.49 352.54,126.66 353.04,117.73C353.54,108.81 354.22,98.24 354.56,94.25C354.89,90.26 355.58,87.00 356.09,87.00C356.59,87.00 357.00,87.25 357.00,87.55C357.00,87.86 358.34,95.84 359.98,105.30C361.62,114.76 363.64,125.09 364.47,128.25C365.30,131.42 366.68,135.69 367.55,137.75C369.02,141.26 369.20,141.37 370.30,139.50z" />

</svg>